# xmcd
#
# Track frame offsets: 
#        150
#        29992
#        43021
#        62031
#        76684
#        91973
#        97180
#        116175
#        134907
#        150250
#        165300
#        181820
#        211545
#        218009
#
# Disc length: 3194 seconds
#
# Revision: 0
# Processed by: cddbd v1.5.1PL2 Copyright (c) Steve Scherf et al.
# Submitted via: ExactAudioCopy v0.95a5
#
DISCID=ba0c780e
DTITLE=Flávio Guimarães - Flávio Guimarães
DYEAR=2005
DGENRE=Blues
TTITLE0=Berimbau não é gaita
TTITLE1=Telephone blues
TTITLE2=Caba véi
TTITLE3=Honest I do
TTITLE4=Maracagroove
TTITLE5=Pinote
TTITLE6=Menina mulher de pele preta
TTITLE7=Jam for Big Walter
TTITLE8=Cão comendo mariola
TTITLE9=Dente de ouro
TTITLE10=Navegaita
TTITLE11=Balada de Robert Johnson
TTITLE12=A formiga e a saúva
TTITLE13=S dobrado
EXTD=
EXTT0=
EXTT1=
EXTT2=
EXTT3=
EXTT4=
EXTT5=
EXTT6=
EXTT7=
EXTT8=
EXTT9=
EXTT10=
EXTT11=
EXTT12=
EXTT13=
PLAYORDER=
